<?xml version="1.0" encoding="utf-8"?>
<!-- Generator: Adobe Illustrator 24.3.0, SVG Export Plug-In . SVG Version: 6.00 Build 0)  -->
<svg version="1.1" id="rabbit" xmlns="http://www.w3.org/2000/svg" xmlns:xlink="http://www.w3.org/1999/xlink" x="0px" y="0px"
	 viewBox="0 0 800 800" style="enable-background:new 0 0 800 800;" xml:space="preserve">
<style type="text/css">
	.st0{fill:#64832D;}
</style>
<g>
	<path class="st0" d="M745.9,346.8c0.6-35.8-29.5-63.8-64.5-61.5c-33.2,2.2-58.4,30.8-56.5,64c-38.4-17.8-83.5-23.2-129.3-14.6
		c-15.7,2.9-32,4.6-48.4,4.9l-25,0.5c-4.2,0.1-8.5,0.2-12.7,0.3c-20.6,0.5-40.1,0.9-59.3-0.9c-20.7-2-41.4-8.4-60.2-18.7
		c2.6-8.3,6.2-14.2,10.4-16.5c80.2-43.7,129.2-105.8,141.6-179.5c0.9-5.2-1-10.2-5-13.3c-4.4-3.4-12.2-6.1-36,0.1
		c-12,3.1-25,7.7-31.2,10.4c-4.5,2-8.8,4.1-13,6.3c0.3-2.7,0.5-5.2,0.6-7.5c0.1-1.5,0.2-2.9,0.3-4.2c0.5-4.9-1.1-8.4-2.5-10.4
		c-6.3-8.9-19.8-6.6-32.2-3.1c-10.7,3-22.3,7.7-29.1,10.9c-29.2,14.1-45.2,39.2-52.2,53c-5.7,11.3-10.8,28.1-20.9,61.7
		c-2.4,8-4.9,13.9-8.9,22.6c-3.6,7.8-16.5,19.6-24.3,25.6c-31.5,4.9-61,21-82.9,45.5l-30.4,34.1c-12.8,8.7-20.4,23-20.4,38.6
		c0,3.2,0.9,21.2,5.2,29.2c3.3,6.3,8.3,11.8,14.3,15.9l5,3.4c9.3,6.3,18.8,11.1,29.1,14.5l1.6,0.5h0c9.3,3,19.1,4.9,30,5.8
		c2.2,0.2,4.7,0.4,7.6,0.5c3.4,0.2,7,0.2,10.9,0.2c3.1,0,6.2-0.1,9.3-0.3c2.3-0.1,4.6-0.3,6.9-0.5c32.7,11.3,53.3,30,66.5,60.6
		c7.6,17.6,11.5,36.9,11.5,57.2v55.3c-22.7,6.7-39.4,27.7-39.4,52.5v10.2h80.1l39.8-87.8c9.9,4,20.1,7.3,30.4,9.9
		c21.9,5.5,45.1,7.7,68.9,6.6c2.8,2.4,5.7,4.7,8.7,6.9h-61.1c-29.9,0-54.2,24.3-54.2,54.2v10.1h184.4c5.6,0,10.2-4.5,10.2-10.2v0
		c0-5.6-4.5-10.2-10.2-10.2H347c4.3-13.7,17.2-23.7,32.3-23.7h114.5c5.6,0,10.2-4.6,10.2-10.2v-0.4c0-5.3-4.1-9.6-9.3-10.2
		c-3.1-0.3-6.2-0.8-9.2-1.4c-15.1-3.2-29.3-10.3-41-20.7l-0.6-0.5c-10.2-9.3-18.3-20.9-23.3-33.6c-1.9-4.8-3.4-9.8-4.4-14.9
		c-0.1-0.5-0.2-1-0.3-1.5c-1-5.3-1.5-10.9-1.5-16.4c0-46.3,35.3-84.6,80.5-89.2c5.2-0.5,9.1-4.8,9.1-10v-0.3c0-5.9-5.1-10.5-11-10
		c-55.5,5.5-98.9,52.5-98.9,109.4c0,6.8,0.6,13.6,1.8,20c0.1,0.6,0.2,1.3,0.4,2c1.3,6.2,3.1,12.4,5.4,18.3c3.1,7.9,7.1,15.4,12,22.3
		c-15.8-0.5-31.2-2.5-45.9-6.2c-10.8-2.7-21.5-6.3-31.8-10.7l-0.1-0.1c-6.6-2.8-14.2-0.7-18.5,5.1l-0.7,0.9l-37.2,82h-45.2
		c4.3-14.1,17.5-24.3,32.9-24.3h6.7c5.6,0,10.2-4.5,10.2-10.2l0,0c0-5.6-4.5-10.2-10.2-10.2h-1.8v-53.1c0-23.1-4.4-45-13.2-65.2
		c-11.4-26.4-28-45.7-51.2-59.3c8.1-2.5,16-5.6,23.6-9.2l1.4-0.7c5.1-2.4,7.2-8.5,4.8-13.5l0,0c-2.4-5.1-8.5-7.2-13.5-4.8l-1.4,0.7
		c-10.1,4.8-20.7,8.5-31.6,11c-8.3,1.9-16.7,3-25.1,3.5c-2.7,0.2-5.5,0.2-8.2,0.2c-3.6,0-6.8-0.1-9.9-0.2c-2.7-0.1-4.8-0.3-6.8-0.5
		c-9.9-0.9-18.8-2.6-26.9-5.4l-0.6-0.2c-8.1-2.8-15.6-6.5-23-11.5c5.5-3.8,10.1-8.9,13.2-14.9c4.9-9.6,5.8-20.6,2.5-30.8
		c-2.2-6.8-6.1-12.7-11.3-17.3l25.1-28.2c22.1-24.8,53.2-39.5,85.4-40.3c1.1,0,2.2,0,3.3,0h14.7c11.9,0.8,22.7-6.8,25.9-18.3
		c8.7-31.3,46.9-100.2,128.7-136.7c10.4-4.6,31.9-11.1,42.7-12.3c-13.3,65.2-57,118.3-130,158.1c-19.1,10.4-23.8,39.3-24.9,55.5
		c-0.1,1.8-0.1,4.1,0,6.6c0.2,6.3,6.1,10.9,12.2,9.6l0,0c4.9-1,8.3-5.4,8.1-10.3c-0.1-1.7-0.1-3.4,0-4.5c0-0.6,0.1-1.2,0.1-1.7
		c19.6,9.8,40.8,16,62.1,18c20.4,1.9,41.4,1.5,61.7,1c4.2-0.1,8.4-0.2,12.6-0.3l25-0.5c17.6-0.3,35-2.1,51.8-5.2
		c56.1-10.5,111.1,1.9,150.8,34.1c34.6,28.1,54.3,69.2,55.3,115.7c0,1.3,0,2.6,0,3.9c0,91.3-71.8,166.2-161.9,171.2
		c-5.3,0.3-9.5,4.8-9.5,10.1l0,0c0,5.8,4.9,10.5,10.7,10.1c100.8-5.6,181-89.3,181-191.5c0-1.5,0-2.9,0-4.4
		c-0.8-36.7-12-70.5-32-98.4c15.5-2.2,29.5-10.2,39.3-22.8C741.2,372.5,745.7,359.8,745.9,346.8z M80.4,378.2
		c3.1,2.4,5.3,5.6,6.6,9.3c1.6,5.1,1.2,10.5-1.3,15.3c-2,4-5.4,7.1-9.3,9c-1-4.4-2-12.1-2-16.9C74.4,388.8,76.5,382.9,80.4,378.2z
		 M229.8,271.7c-0.6,2.2-2.8,3.7-5.1,3.5l-5.3,0c4.5-4.9,8.7-10.4,11.1-15.6c4.3-9.3,7.1-16.1,9.9-25.2
		c9.5-31.4,14.7-48.7,19.6-58.4c4.7-9.2,18.1-31.9,42.8-43.8c10.9-5.3,26.1-10.3,34.3-11.7c-0.5,7.9-1.4,16.7-8.3,24.2
		C268,185.9,237.8,243,229.8,271.7z M645.2,348.3c-1.4-20.9,13.6-39.2,34-42.4c6,5.7,9.7,13.5,10.2,21.9c0.6,8.9-2.3,17.5-8.2,24.2
		c-5.9,6.7-14,10.7-22.9,11.3c-3.1,0.2-6.1,0-9.2-0.7c-0.1-0.1-0.2-0.1-0.2-0.2C646.8,358.1,645.6,353.3,645.2,348.3z M715.6,372.2
		c-7.1,8.1-16.9,12.9-27.6,13.6c-4,0.3-7.9-0.1-11.7-1c-1.2-1.2-2.5-2.5-3.8-3.7c9.2-2.9,17.4-8.3,24-15.7
		c9.5-10.8,14.2-24.6,13.2-38.9c-0.3-5.2-1.5-10.3-3.2-15.1c10.7,6.6,18.2,18.1,19.1,31.6C726.2,353.8,722.7,364.1,715.6,372.2z"/>
	<path class="st0" d="M144.7,334.8c-4.4,1.4-6.9,6-5.6,10.5c1.4,4.4,6.1,6.9,10.5,5.5c4.4-1.4,6.9-6,5.6-10.5
		C153.8,336,149.1,333.5,144.7,334.8z"/>
</g>
</svg>
