<?xml version="1.0" encoding="utf-8"?>
<!-- Generator: Adobe Illustrator 24.3.0, SVG Export Plug-In . SVG Version: 6.00 Build 0)  -->
<svg version="1.1" id="Capa_1" xmlns="http://www.w3.org/2000/svg" xmlns:xlink="http://www.w3.org/1999/xlink" x="0px" y="0px"
	 viewBox="0 0 800 800" style="enable-background:new 0 0 800 800;" xml:space="preserve">
<style type="text/css">
	.st0{fill:#64832D;}
</style>
<g>
	<g>
		<g>
			<path class="st0" d="M406.3,238.8L406.3,238.8c-0.1,0-0.1,0-0.2,0v0c0,0-0.1,0-0.1,0c0,0-0.1,0-0.1,0v0c-0.1,0-0.1,0-0.2,0v0
				c-41.3,1.1-66.6,24.4-66.2,65.3c0.6,58.9,25.4,94.6,66.2,93.9v0c0,0,0.1,0,0.1,0c0,0,0,0,0.1,0c0,0,0,0,0,0h0c0,0,0,0,0.1,0
				c0,0,0.1,0,0.1,0v0c40.8,0.6,65.6-35.1,66.2-93.9C472.9,263.2,447.6,239.9,406.3,238.8z"/>
			<path class="st0" d="M202.4,638.1c-5.4-2.6-12.1-4-18.4-4c-16.4,0-26.6,9.8-26.6,25.5v14.2h-6.2c-2.5,0-4.5,2-4.5,4.5v9.3
				c0,2.5,2,4.5,4.5,4.5h6.2v35.3c0,2.5,2,4.5,4.5,4.5h17.7c2.5,0,4.5-2,4.5-4.5v-35.2h15.6c2.5,0,4.5-2,4.5-4.5v-9.4
				c0-2.5-2-4.5-4.5-4.5h-15.6v-10.4c0-5,1.7-7.3,5.6-7.3l0.3,0c1.6,0,3.5,0.4,5.9,1.2c1.2,0.4,2.5,0.3,3.6-0.3
				c1.1-0.6,1.9-1.6,2.3-2.8l3.1-10.9C205.4,641.3,204.4,639,202.4,638.1z"/>
			<path class="st0" d="M688.2,5.2c-61.7,0-111.8,50.2-111.8,111.8c0,23.9,7.6,46.1,20.4,64.3l-50,50
				c-37.2-33.8-86.6-54.4-140.7-54.4c-57.3,0-109.2,23.1-147.1,60.5L208,195.3c9.9-16.7,15.6-36.2,15.6-56.9
				c0-61.7-50.2-111.8-111.8-111.8S0,76.7,0,138.3C0,200,50.2,250.2,111.8,250.2c29.3,0,56-11.3,75.9-29.8l50.1,41.4
				c-25.9,34.8-41.2,78-41.2,124.6c0,66.1,30.7,125.1,78.7,163.5l-36,40.9c-18-12.3-39.7-19.6-63.1-19.6
				c-61.7,0-111.8,50.2-111.8,111.8c0,61.7,50.2,111.8,111.8,111.8S288,744.7,288,683c0-26.7-9.4-51.2-25-70.4l39.1-44.5
				c30.7,17.6,66.1,27.7,104,27.7c115.5,0,209.4-94,209.4-209.5c0-49.8-17.5-95.6-46.6-131.6l50-50c19.1,15.1,43.1,24.1,69.2,24.1
				c61.7,0,111.8-50.2,111.8-111.8C800,55.3,749.8,5.2,688.2,5.2z M176.2,765.5c-45.5,0-82.5-37-82.5-82.4c0-45.5,37-82.5,82.5-82.5
				s82.5,37,82.5,82.5C258.6,728.5,221.6,765.5,176.2,765.5z M111.8,220.8c-45.5,0-82.5-37-82.5-82.5c0-45.4,37-82.4,82.5-82.4
				s82.5,37,82.5,82.4C194.3,183.8,157.3,220.8,111.8,220.8z M542.4,488.4c-2.9-20.7-8.3-41.5-18.9-45.7l-66.4-26.4l-15.5-13.1
				c-4.1-3.5-10.2-3.2-14,0.6l-21.6,21.5l-21.7-21.5c-3.8-3.8-9.9-4-14-0.6l-15.5,13.1l-66.4,26.5c-10.6,4.2-15.9,25-18.8,45.7
				c-21.4-28.5-34-63.8-34-102.1c0-94,76.4-170.4,170.4-170.4s170.4,76.4,170.4,170.4C576.5,424.6,563.8,459.9,542.4,488.4z
				 M688.2,199.4c-45.5,0-82.5-37-82.5-82.5c0-45.5,37-82.5,82.5-82.5c45.5,0,82.5,37,82.5,82.5
				C770.6,162.5,733.6,199.4,688.2,199.4z"/>
			<path class="st0" d="M713.8,145.7c-0.3-1.2-1.2-2.2-2.2-2.8c-1.1-0.6-2.4-0.7-3.6-0.3c-2.4,0.8-4.3,1.2-5.9,1.2l-0.3,0
				c-3.9,0-5.6-2.2-5.6-7.3v-28.9h15.5c2.5,0,4.5-2,4.5-4.5v-9.4c0-2.5-2-4.5-4.5-4.5h-15.6V72.6c0-2.5-2-4.5-4.5-4.5h-17.7
				c-2.5,0-4.5,2-4.5,4.5v16.8h-6.2c-2.5,0-4.5,2-4.5,4.5v9.3c0,2.5,2,4.5,4.5,4.5h6.2v32.7c0,15.7,10.2,25.5,26.6,25.5
				c6.3,0,13-1.5,18.4-4c2-0.9,3-3.2,2.4-5.3L713.8,145.7z"/>
			<path class="st0" d="M144.4,89.9h-15.4c-2.5,0-4.5,2-4.5,4.5v2.1c-4.8-4.9-11.2-7.4-18.9-7.4l-0.4,0c-18,0-30.5,14-30.5,34
				c0,20.5,12.7,34.7,31,34.7c7.7,0,14.1-2.5,18.8-7.4v4.3c0,8.3-6,13.2-16,13.2c-6.1,0-12.3-1.7-17.9-4.9c-1.1-0.6-2.3-0.7-3.5-0.4
				c-1.2,0.3-2.2,1.2-2.7,2.3l-4.6,9c-1.1,2.1-0.3,4.8,1.7,6c8.5,4.9,18.7,7.6,28.7,7.6c23.2,0,38.7-13.4,38.7-33.3V94.5
				C149,92,146.9,89.9,144.4,89.9z M111.3,139.5c-8.1,0-13.6-6.3-13.6-15.7c0-9.5,5.4-15.9,13.6-15.9c7.9,0,13.3,6.4,13.3,15.9
				C124.5,133.2,119.2,139.5,111.3,139.5z"/>
		</g>
	</g>
</g>
</svg>
