<?xml version="1.0" encoding="utf-8"?>
<!-- Generator: Adobe Illustrator 24.3.0, SVG Export Plug-In . SVG Version: 6.00 Build 0)  -->
<svg version="1.1" id="Layer_1" xmlns="http://www.w3.org/2000/svg" xmlns:xlink="http://www.w3.org/1999/xlink" x="0px" y="0px"
	 viewBox="0 0 800 800" style="enable-background:new 0 0 800 800;" xml:space="preserve">
<style type="text/css">
	.st0{fill:#64832D;}
</style>
<g>
	<path class="st0" d="M400,262.5c-82.5,0-150,67.5-150,150s67.5,150,150,150s150-67.5,150-150S482.5,262.5,400,262.5z M400,512.5
		c-55,0-100-45-100-100s45-100,100-100s100,45,100,100S455,512.5,400,512.5z"/>
	<path class="st0" d="M400,630c-93.1,0-182.5,38.8-246.3,106.9L136.9,755l36.2,34.4l16.9-18.1c55-58.8,129.4-91.2,210-91.2
		s155,32.5,210,91.2l16.9,18.1l36.2-34.4l-16.9-18.1C582.5,669.4,493.1,630,400,630z"/>
	<path class="st0" d="M606.2,299.4v50c58.8,0,113.1,23.8,153.8,66.9l36.2-34.4C747.5,329.4,678.1,299.4,606.2,299.4z"/>
	<path class="st0" d="M725.6,125c0-65.6-53.8-119.4-119.4-119.4S486.9,59.4,486.9,125s53.8,119.4,119.4,119.4S725.6,190.6,725.6,125
		z M536.9,125c0-38.1,31.2-69.4,69.4-69.4s69.4,31.2,69.4,69.4s-31.2,69.4-69.4,69.4S536.9,163.1,536.9,125z"/>
	<path class="st0" d="M193.8,299.4c-71.9,0-141.2,30-190,82.5L40,416.3c40-43.1,95-66.9,153.8-66.9V299.4z"/>
	<path class="st0" d="M313.1,125c0-65.6-53.8-119.4-119.4-119.4S74.4,59.4,74.4,125s53.8,119.4,119.4,119.4S313.1,190.6,313.1,125z
		 M193.8,194.4c-38.1,0-69.4-31.2-69.4-69.4s31.2-69.4,69.4-69.4s69.4,31.2,69.4,69.4S231.9,194.4,193.8,194.4z"/>
</g>
</svg>
