<?xml version="1.0" encoding="utf-8"?>
<!-- Generator: Adobe Illustrator 24.3.0, SVG Export Plug-In . SVG Version: 6.00 Build 0)  -->
<svg version="1.1" id="Layer_1" xmlns="http://www.w3.org/2000/svg" xmlns:xlink="http://www.w3.org/1999/xlink" x="0px" y="0px"
	 viewBox="0 0 800 800" style="enable-background:new 0 0 800 800;" xml:space="preserve">
<style type="text/css">
	.st0{fill-rule:evenodd;clip-rule:evenodd;fill:#64832D;}
</style>
<path class="st0" d="M406.5,628c-260.2,0-248.4-371.7-4.2-371.7C645.6,256.3,644.2,628,406.5,628z M402,281.3c-11.8,0-23.5,1-35,3.2
	l4.5,25.6L318,347.9L271,345c-4.6,6.5-8.7,13.3-12.3,20.4l9.9,92.2l29,37.2l-29.7,42.1c26.5,38.8,72.1,66.2,137.8,66.2
	c94.6,0,145.9-68,153.3-141.5l-22.2-20.2L504.2,429l-5.3,8l12.6,13.3l9.8,1.5l4.2,14.1l-30.7,15.5l-21.1-36.7l-7.3,16.5l15.9,34.9
	l19.5,5.7l-31.4,16.8l-40.9,58.7l-34.8,2.7l-7.6-33.7l5.8-49.6L353,486.2l-13.1-31.5l6.3-30.3l37.9-15.5l35.8,20.5l18.9-6.2
	l28.2,7.6l6.4-35.9l-36.3-12l-0.4,23.4l-23-1.1l-2-24.8l-28.5,6.3l2.1-21.8l-12.1-14.1l18.4-16.8l30,16.8L431,331l23.7-10.1l15.8,7
	l16.1-3.2l6.9-16.8C469.5,291.2,439,281.3,402,281.3z"/>
</svg>
