<?xml version="1.0" encoding="utf-8"?>
<!-- Generator: Adobe Illustrator 24.3.0, SVG Export Plug-In . SVG Version: 6.00 Build 0)  -->
<svg version="1.1" id="Layer_1" xmlns="http://www.w3.org/2000/svg" xmlns:xlink="http://www.w3.org/1999/xlink" x="0px" y="0px"
	 viewBox="0 0 800 800" style="enable-background:new 0 0 800 800;" xml:space="preserve">
<style type="text/css">
	.st0{display:none;}
	.st1{fill:#64832D;}
</style>
<g id="Layer_1_1_" class="st0">
</g>
<g id="Layer_2_1_">
	<g>
		<path class="st1" d="M163,611c2.7,0,5.4-1,7.5-3c4.4-4.2,4.5-11.1,0.4-15.5c-53-55.6-82.2-128.5-82.2-205.1
			c0-67.5,22.1-131.2,64-184.2c3.4-4.4,3.1-10.6-0.8-14.5l-14.5-14.5l93.1-25l-25,93.1l-9.7-9.7c-2.2-2.3-5.4-3.4-8.5-3.2
			c-3.2,0.2-6.1,1.8-8,4.4c-33.2,44.6-50.8,97.7-50.8,153.5c0,64.8,24.2,126.8,68.1,174.5c4.1,4.4,11,4.7,15.5,0.6s4.7-11,0.6-15.5
			c-40.2-43.6-62.3-100.3-62.3-159.6c0-46.8,13.5-91.5,39.1-130.1l13.9,13.9c2.8,2.8,6.8,3.8,10.6,2.8c3.8-1,6.7-4,7.7-7.7
			l34.8-129.7c1-3.8-0.1-7.8-2.8-10.6c-2.8-2.8-6.8-3.8-10.6-2.8l-129.7,34.8c-3.8,1-6.7,4-7.7,7.7s0.1,7.8,2.8,10.6l21.1,21.1
			c-41.1,55.3-62.8,120.8-62.8,190c0,82.3,31.3,160.5,88.2,220.2C157.2,609.8,160.1,611,163,611z"/>
		<path class="st1" d="M731.7,293.7c-2-3.4-5.6-5.5-9.5-5.5h-32.3c-1.2-3.5-2.4-7.1-3.7-10.6C663.9,216.8,624.1,164.7,571,127
			c-54.2-38.6-118.2-59-184.8-59c-39.5,0-78,7.1-114.6,21.2c-5.6,2.2-8.4,8.5-6.3,14.1c2.2,5.6,8.5,8.4,14.1,6.3
			c34-13.1,69.9-19.8,106.7-19.8c124.3,0,236.6,78.5,279.5,195.4c2.1,5.7,4,11.4,5.7,17.1c1.4,4.6,5.6,7.8,10.5,7.8h21.4l-48.2,83.5
			l-25.8-44.7c-0.1-0.1-0.1-0.2-0.2-0.4l-22.2-38.4h9.8c3.6,0,7-1.8,9-4.7c2-3,2.5-6.7,1.2-10.1c-2.4-6.2-5-12.5-8-18.6
			c-20.6-43.3-52.9-80-93.4-106.1c-41.5-26.8-89.7-40.9-139.4-40.9c-31.7,0-62.6,5.7-92,16.9c-5.6,2.2-8.5,8.5-6.3,14.1
			c2.2,5.6,8.5,8.5,14.1,6.3c26.8-10.3,55.2-15.5,84.2-15.5c90.5,0,174.1,52.8,213,134.6c0.3,0.7,0.7,1.4,1,2.1h-12.3
			c-3.9,0-7.5,2.1-9.5,5.5s-2,7.5,0,10.9l31.5,54.5c0.1,0.1,0.1,0.2,0.2,0.4l35.5,61.4c2,3.4,5.6,5.5,9.5,5.5s7.5-2.1,9.5-5.5
			l67.1-116.3C733.6,301.2,733.6,297.1,731.7,293.7z"/>
		<path class="st1" d="M215.9,607.6c-1.6,3.6-1.2,7.7,1.1,10.9l78.5,109c2.1,2.9,5.4,4.5,8.9,4.5c0.4,0,0.7,0,1.1-0.1
			c3.9-0.4,7.3-2.8,8.9-6.4l11.1-24.6c19.9,3.9,40.3,5.8,60.8,5.8c73.5,0,145.3-25.7,202.2-72.3c56.1-46,95.2-110.1,110.2-180.6
			c1.2-5.9-2.5-11.7-8.4-13c-5.9-1.2-11.7,2.5-13,8.4c-29,136.5-151.4,235.6-291,235.6c-21.9,0-43.7-2.4-64.8-7.1
			c-5.1-1.1-10.2,1.5-12.4,6.2l-6.9,15.4l-56.3-78.2l95.9-9.7l-6.6,14.7c-1.4,3.1-1.3,6.7,0.3,9.6c1.6,3,4.5,5.1,7.8,5.6
			c14.1,2.4,28.5,3.6,43,3.6c117.6,0,220.3-79.5,249.5-193.3c1.5-5.8-2-11.8-7.9-13.3c-5.9-1.5-11.8,2-13.3,7.9
			c-26.8,104.1-120.7,176.9-228.4,176.9c-8.4,0-16.9-0.4-25.2-1.3l8.4-18.7c1.6-3.6,1.2-7.7-1.1-10.9s-6.1-4.9-10-4.5l-133.6,13.5
			C220.9,601.6,217.5,604.1,215.9,607.6z"/>
		<path class="st1" d="M464.2,287c0-0.1-0.1-0.2-0.1-0.2c-0.9-1.9-1.9-3.8-2.8-5.7c-16.3-31.5-40.1-59.3-68.7-80.4
			c0,0-0.1,0-0.1-0.1c-0.4-0.3-0.9-0.6-1.3-0.8c-0.1,0-0.1-0.1-0.2-0.1c-0.5-0.2-0.9-0.4-1.4-0.6c0,0-0.1,0-0.1,0
			c-0.5-0.2-1-0.3-1.5-0.4c-0.1,0-0.2,0-0.3,0c-0.5-0.1-1-0.1-1.5-0.1s-1,0-1.5,0.1c-0.1,0-0.2,0-0.3,0c-0.5,0.1-1,0.2-1.5,0.4
			c0,0-0.1,0-0.1,0c-0.5,0.2-1,0.4-1.4,0.6c-0.1,0-0.1,0.1-0.2,0.1c-0.5,0.2-0.9,0.5-1.3,0.8c0,0-0.1,0-0.1,0.1
			c-28.7,21.1-52.4,48.9-68.7,80.4C294,313.7,285,350.4,285,387.4c0,12.6,1,25.2,3,37.5c1,6,6.6,10,12.6,9c6-1,10-6.6,9-12.6
			c-1.8-11.2-2.7-22.6-2.7-34c0-11.7,1-23.2,2.9-34.6l65.3,73.5v57.6v0V542c-18.1-16.6-33.4-36.4-44.7-58.2
			c-2.8-5.4-9.4-7.5-14.8-4.7s-7.5,9.4-4.7,14.8c16.3,31.4,40,59.1,68.6,80.1c0,0,0.1,0,0.1,0.1c0.4,0.3,0.9,0.6,1.3,0.8
			c0.1,0,0.1,0.1,0.2,0.1c0.5,0.2,0.9,0.4,1.4,0.6c0,0,0.1,0,0.1,0c0.5,0.2,1,0.3,1.5,0.4c0.1,0,0.2,0,0.3,0c0.5,0.1,1,0.1,1.5,0.1
			s1,0,1.5-0.1c0.1,0,0.2,0,0.3,0c0.5-0.1,1-0.2,1.5-0.4c0,0,0.1,0,0.1,0c0.5-0.2,1-0.4,1.4-0.6c0.1,0,0.1-0.1,0.2-0.1
			c0.5-0.2,0.9-0.5,1.3-0.8c0,0,0.1,0,0.1-0.1c28.7-21.1,52.4-48.9,68.7-80.4c15.4-29.7,24.1-62.9,25.5-96.5c0.8-2.2,0.9-4.7,0.2-7
			c0-0.9,0-1.8,0-2.8C487,352.7,479.1,318.1,464.2,287z M397,364.9l53.7-53.7c9.4,24,14.4,49.8,14.4,76.2c0,0.6,0,1.3,0,1.9
			L397,457.4L397,364.9L397,364.9z M441,290l-44,44V232.7C414.9,249.2,429.8,268.6,441,290z M316,326.8c10.9-35.8,31.2-68.5,59.1-94
			v127.7v0v32.9L316,326.8z M397,542v-53.6l65-65C454,468.8,431.1,510.7,397,542z"/>
		<path class="st1" d="M315.4,460.3c0.4-0.6,0.7-1.2,1-1.9c0.3-0.7,0.5-1.3,0.6-2c0.1-0.7,0.2-1.4,0.2-2.1c0-0.7-0.1-1.4-0.2-2.1
			c-0.1-0.7-0.4-1.4-0.6-2c-0.3-0.7-0.6-1.3-1-1.9c-0.4-0.6-0.9-1.2-1.4-1.7c-2.5-2.5-6.3-3.7-9.9-3c-0.7,0.1-1.4,0.3-2,0.6
			c-0.7,0.3-1.3,0.6-1.9,1c-0.6,0.4-1.2,0.9-1.7,1.4c-0.5,0.5-1,1.1-1.4,1.7c-0.4,0.6-0.7,1.2-1,1.9c-0.3,0.7-0.5,1.3-0.6,2
			c-0.1,0.7-0.2,1.4-0.2,2.1c0,0.7,0.1,1.4,0.2,2.1c0.1,0.7,0.4,1.4,0.6,2c0.3,0.7,0.6,1.3,1,1.9c0.4,0.6,0.9,1.2,1.4,1.7
			c0.5,0.5,1.1,1,1.7,1.4s1.2,0.7,1.9,1c0.7,0.3,1.3,0.5,2,0.6c0.7,0.1,1.4,0.2,2.1,0.2c2.9,0,5.7-1.2,7.7-3.2
			C314.5,461.5,315,460.9,315.4,460.3z"/>
	</g>
</g>
</svg>
