<?xml version="1.0" encoding="utf-8"?>
<!-- Generator: Adobe Illustrator 24.3.0, SVG Export Plug-In . SVG Version: 6.00 Build 0)  -->
<svg version="1.1" id="Layer_1" xmlns="http://www.w3.org/2000/svg" xmlns:xlink="http://www.w3.org/1999/xlink" x="0px" y="0px"
	 viewBox="0 0 800 800" style="enable-background:new 0 0 800 800;" xml:space="preserve">
<style type="text/css">
	.st0{display:none;}
	.st1{fill:#64832D;}
</style>
<g id="Layer_1_1_" class="st0">
</g>
<g id="Layer_2_1_">
	<g>
		<path class="st1" d="M142.1,582.1c1.8,3.8,5.7,6.2,9.8,6.2h206.7h71.8v121.9h-60.8v-84c0-6-4.9-10.9-10.9-10.9
			c-6,0-10.9,4.9-10.9,10.9v94.9c0,6,4.9,10.9,10.9,10.9h82.7c6,0,10.9-4.9,10.9-10.9V588.3h59.5c6,0,10.9-4.9,10.9-10.9
			s-4.9-10.9-10.9-10.9h-70.4h-82.7h-184l85.9-108.4c2.6-3.3,3.1-7.8,1.3-11.6c-1.8-3.8-5.7-6.2-9.8-6.2h-33.6L304.3,332
			c2.6-3.3,3.1-7.8,1.3-11.6s-5.7-6.2-9.8-6.2h-33.6L348,205.9c2.6-3.3,3.1-7.8,1.3-11.6c-1.8-3.8-5.7-6.2-9.8-6.2h-30.3L400,94.6
			l90.9,93.6h-30.3c-4.2,0-8,2.4-9.8,6.2c-1.8,3.8-1.3,8.3,1.3,11.6l85.9,108.4h-33.6c-4.2,0-8,2.4-9.8,6.2
			c-1.8,3.8-1.3,8.3,1.3,11.6l85.9,108.4h-33.6c-4.2,0-8,2.4-9.8,6.2c-1.8,3.8-1.3,8.3,1.3,11.6l85.9,108.4h-36.7
			c-6,0-10.9,4.9-10.9,10.9s4.9,10.9,10.9,10.9H648c4.2,0,8-2.4,9.8-6.2c1.8-3.8,1.3-8.3-1.3-11.6l-85.9-108.4h33.6
			c4.2,0,8-2.4,9.8-6.2c1.8-3.8,1.3-8.3-1.3-11.6l-85.9-108.4h33.6c4.2,0,8-2.4,9.8-6.2c1.8-3.8,1.3-8.3-1.3-11.6L483.2,210h33.6
			c4.4,0,8.4-2.6,10.1-6.7c1.7-4,0.8-8.7-2.2-11.9L407.8,71.3c-2.1-2.1-4.9-3.3-7.8-3.3c-3,0-5.8,1.2-7.8,3.3L275.4,191.5
			c-3.1,3.2-3.9,7.8-2.2,11.9c1.7,4,5.7,6.7,10.1,6.7h33.6l-85.9,108.4c-2.6,3.3-3.1,7.8-1.3,11.6s5.7,6.2,9.8,6.2h33.6l-85.9,108.4
			c-2.6,3.3-3.1,7.8-1.3,11.6c1.8,3.8,5.7,6.2,9.8,6.2h33.6l-85.9,108.4C140.8,573.9,140.3,578.3,142.1,582.1z"/>
		<path class="st1" d="M544.7,567.3c-0.7,0.3-1.3,0.6-1.9,1c-0.6,0.4-1.2,0.9-1.7,1.4c-0.5,0.5-1,1.1-1.4,1.7
			c-0.4,0.6-0.7,1.2-1,1.9c-0.3,0.7-0.5,1.4-0.6,2c-0.2,0.7-0.2,1.4-0.2,2.1s0.1,1.4,0.2,2.1c0.1,0.7,0.3,1.4,0.6,2
			c0.3,0.7,0.6,1.3,1,1.9s0.9,1.2,1.4,1.7c2,2,4.9,3.2,7.7,3.2c0.7,0,1.4-0.1,2.1-0.2c0.7-0.1,1.4-0.3,2-0.6c0.7-0.3,1.3-0.6,1.9-1
			c0.6-0.4,1.2-0.9,1.7-1.4c2-2,3.2-4.9,3.2-7.7c0-2.9-1.2-5.7-3.2-7.7c-0.5-0.5-1.1-1-1.7-1.4c-0.6-0.4-1.2-0.7-1.9-1
			c-0.7-0.3-1.4-0.5-2-0.6c-1.4-0.3-2.9-0.3-4.3,0C546.1,566.8,545.4,567,544.7,567.3z"/>
		<path class="st1" d="M481.6,434.5c3.7-3.7,8.7-5.8,14-5.8s10.2,2.1,14,5.8c2.1,2.1,4.9,3.2,7.7,3.2c2.8,0,5.6-1.1,7.7-3.2
			c4.3-4.3,4.3-11.2,0-15.5c-7.9-7.9-18.3-12.2-29.4-12.2c-11.1,0-21.6,4.3-29.4,12.2c-4.3,4.3-4.3,11.2,0,15.5
			C470.4,438.8,477.4,438.8,481.6,434.5z"/>
		<path class="st1" d="M423.9,306.9c7.7-7.7,20.2-7.7,27.9,0c2.1,2.1,4.9,3.2,7.7,3.2c2.8,0,5.6-1.1,7.7-3.2
			c4.3-4.3,4.3-11.2,0-15.5c-16.2-16.2-42.6-16.2-58.9,0c-4.3,4.3-4.3,11.2,0,15.5C412.7,311.2,419.6,311.2,423.9,306.9z"/>
		<path class="st1" d="M416.2,240.3c2.8,0,5.6-1.1,7.7-3.2c4.3-4.3,4.3-11.2,0-15.5c-7.9-7.9-18.3-12.2-29.4-12.2
			c-11.1,0-21.6,4.3-29.4,12.2c-4.3,4.3-4.3,11.2,0,15.5c4.3,4.3,11.2,4.3,15.5,0c3.7-3.7,8.7-5.8,14-5.8c5.3,0,10.2,2.1,14,5.8
			C410.6,239.2,413.4,240.3,416.2,240.3z"/>
		<path class="st1" d="M503.3,536.1c3.7-3.7,8.7-5.8,14-5.8c5.3,0,10.2,2.1,14,5.8c2.1,2.1,4.9,3.2,7.7,3.2c2.8,0,5.6-1.1,7.7-3.2
			c4.3-4.3,4.3-11.2,0-15.5c-7.9-7.9-18.3-12.2-29.4-12.2c-11.1,0-21.6,4.3-29.4,12.2c-4.3,4.3-4.3,11.2,0,15.5
			C492.1,540.4,499.1,540.4,503.3,536.1z"/>
		<path class="st1" d="M269.8,490.1c-4.3,4.3-4.3,11.2,0,15.5c4.3,4.3,11.2,4.3,15.5,0c7.7-7.7,20.2-7.7,27.9,0
			c2.1,2.1,4.9,3.2,7.7,3.2c2.8,0,5.6-1.1,7.7-3.2c4.3-4.3,4.3-11.2,0-15.5C312.4,473.9,286,473.9,269.8,490.1z"/>
		<path class="st1" d="M349.8,398.6c2.8,0,5.6-1.1,7.7-3.2c4.3-4.3,4.3-11.2,0-15.5c-7.9-7.9-18.3-12.2-29.4-12.2
			c-11.1,0-21.6,4.3-29.4,12.2c-4.3,4.3-4.3,11.2,0,15.5c4.3,4.3,11.2,4.3,15.5,0c3.7-3.7,8.7-5.8,14-5.8c5.3,0,10.2,2.1,14,5.8
			C344.2,397.5,347,398.6,349.8,398.6z"/>
	</g>
</g>
</svg>
