<?xml version="1.0" encoding="utf-8"?>
<!-- Generator: Adobe Illustrator 24.3.0, SVG Export Plug-In . SVG Version: 6.00 Build 0)  -->
<svg version="1.1" id="Layer_1" xmlns="http://www.w3.org/2000/svg" xmlns:xlink="http://www.w3.org/1999/xlink" x="0px" y="0px"
	 viewBox="0 0 800 800" style="enable-background:new 0 0 800 800;" xml:space="preserve">
<style type="text/css">
	.st0{fill:#64832D;}
</style>
<path class="st0" d="M705.7,730c-71.4-25.7-134.3-42.9-191.4-54.3v-54.3c102.9-10,182.9-97.1,182.9-201.4
	c0-111.4-91.4-202.9-202.9-202.9c-17.1,0-32.9,1.4-48.6,5.7c-24.3-102.9-110-180-170-180c-68.6,0-174.3,102.9-174.3,231.4
	c0,121.4,71.4,220,160,230v158.6c-118.6,17.1-168.6,65.7-172.9,70c-5.7,5.7-5.7,14.3,0,20c5.7,5.7,14.3,5.7,20,0
	c1.4-1.4,154.3-151.4,585.7,2.9c1.4,0,2.9,1.4,4.3,1.4c5.7,0,11.4-4.3,12.9-10C717.1,740,712.9,731.4,705.7,730z M492.9,244.3
	c95.7,0,174.3,78.6,174.3,174.3c0,90-67.1,162.9-154.3,172.9V540l98.6-98.6c5.7-5.7,5.7-14.3,0-20c-5.7-5.7-14.3-5.7-20,0L512.9,500
	V355.7c0-8.6-5.7-14.3-14.3-14.3s-14.3,5.7-14.3,14.3V500l-42.9-42.9c-5.7-5.7-14.3-5.7-20,0c-5.7,5.7-5.7,14.3,0,20l62.9,62.9v51.4
	c-65.7-2.9-122.9-42.9-150-101.4C401.4,458.6,450,372.9,450,272.9c0-8.6,0-15.7-1.4-24.3C464.3,245.7,478.6,244.3,492.9,244.3z
	 M130,274.3c0-110,90-202.9,145.7-202.9s147.1,92.9,147.1,202.9c0,104.3-58.6,191.4-132.9,201.4V440l72.9-72.9
	c5.7-5.7,5.7-14.3,0-20c-5.7-5.7-14.3-5.7-20,0L290,400v-35.7l0,0v-50l74.3-74.3c5.7-5.7,5.7-14.3,0-20c-5.7-5.7-14.3-5.7-20,0
	L290,274.3v-65.7c0-8.6-5.7-14.3-14.3-14.3s-14.3,5.7-14.3,14.3v118.6L194.3,260c-5.7-5.7-14.3-5.7-20,0c-5.7,5.7-5.7,14.3,0,20
	l87.1,87.1v107.1C187.1,465.7,130,378.6,130,274.3z M290,658.6V504.3c5.7,0,11.4-1.4,17.1-2.9c31.4,70,100,117.1,177.1,121.4v48.6
	C407.1,655.7,342.9,654.3,290,658.6z"/>
</svg>
