<?xml version="1.0" encoding="utf-8"?>
<!-- Generator: Adobe Illustrator 24.3.0, SVG Export Plug-In . SVG Version: 6.00 Build 0)  -->
<svg version="1.1" id="Capa_1" xmlns="http://www.w3.org/2000/svg" xmlns:xlink="http://www.w3.org/1999/xlink" x="0px" y="0px"
	 viewBox="0 0 800 800" style="enable-background:new 0 0 800 800;" xml:space="preserve">
<style type="text/css">
	.st0{fill:#64832D;}
</style>
<g>
	<path class="st0" d="M725.9,398.8c-8.7-4.9-18.2-8.3-27.7-11.1C691,309,643.6,247.4,563.1,214.1c-73.4-30.4-139.5-24.2-191.3,16.7
		v-44.7c11.4,2.7,28.8,6.1,50,6.1h0c30.5,0,57.7-7,80.2-20.9c61.5-37.6,81.2-121.3,81.9-124.8c2.5-11-3.7-22.1-14.4-25.7
		c-1.1-0.4-28.4-9.5-63-9.5c-30.6,0-57.6,7-80.1,20.8c-24.5,15-42,37.1-54.6,58.6V26.5c0-12.2-9.9-22-22-22c-12.1,0-22,9.9-22,22
		v204.4c-51.8-40.9-117.9-47.2-191.3-16.7C13.6,265-29,375.2,19.7,516.3c39.8,115.5,129.6,226.7,213.7,264.5
		c37.4,16.8,73.2,19.1,103.7,6.5c4.2-1.7,8.4-3.9,12.7-6.5c4.3,2.7,8.4,4.7,12.6,6.5c13.4,5.6,27.4,8.3,42.2,8.3
		c31.3,0,65.2-13.1,100.3-37.6c23.5,17.1,41.8,28.7,47.4,32.3c3.6,2.2,7.7,3.4,11.7,3.4c4.1,0,8.2-1.1,11.8-3.4
		C595.9,777.8,771.4,665,792.8,568c4.7-14.3,7.2-29.2,7.2-44.2C800,471.7,771.6,423.8,725.9,398.8z M449.5,69.6
		c15.6-9.5,34.8-14.3,57.2-14.3c10.3,0,19.9,1,27.8,2.3c-8.5,22.7-25.7,57.9-55.3,76.1c-15.6,9.5-34.9,14.3-57.3,14.3
		c-10.3,0-19.9-1.1-27.7-2.4C403.3,121.2,421.4,86.9,449.5,69.6z M379.1,746.4c-4.7-1.9-9.5-4.9-15.7-9.8c-8-6.4-19.3-6.4-27.3,0
		c-5.8,4.6-10.9,7.9-15.8,9.9c-19.3,8-42.5,6-68.8-5.9C178.8,708,97.1,605.3,61.5,501.9C9.2,350.7,82.7,284.1,153.5,254.8
		c51.6-21.3,124.6-31.2,178.6,44c0.3,0.4,0.9,0.6,1.1,1c1.5,1.8,3.2,3.2,5.1,4.4c0.9,0.5,1.4,1.1,2.3,1.5c2.8,1.4,6,2.3,9.4,2.3
		c3.3,0,6.4-0.9,9.4-2.3c0.9-0.4,1.4-1,2.2-1.5c2-1.3,3.7-2.7,5.2-4.5c0.3-0.4,0.9-0.6,1.1-0.9c53.9-75.1,126.7-65.4,178.5-44
		c44.1,18.2,96.2,55.3,107,127.2c-32.4,1-64.4,12.2-89,33.4c-43.7-37.5-110.9-44.9-161.9-16.7c-45.6,25.1-74,73-74,125.1
		c0,15.1,2.4,30,6.5,42c12.7,57.7,77.4,119.7,133.1,164.2C442.4,745.5,408.7,758.7,379.1,746.4z M750.3,556.2
		c-14.2,64.1-129.9,152-186.2,189.2c-12.5-8.3-28.1-19.3-44.7-31.7c-1.1-0.9-2.2-2-3.6-2.7c-57.5-43.6-127.3-106.6-138.6-157
		c-3.2-9.8-4.9-20-4.9-30.3c0-35.9,19.5-69,51.2-86.4c14.5-8.1,30.8-12.3,47.5-12.3c29.5,0,57.2,13.1,76.1,35.8c4.2,5.1,10.4,8,17,8
		c6.5,0,12.7-2.9,17-8c29.4-35.5,83.3-45.9,123.6-23.4c31.6,17.4,51.2,50.5,51.2,86.5C755.9,534,754.2,544.1,750.3,556.2z"/>
</g>
</svg>
