<?xml version="1.0" encoding="utf-8"?>
<!-- Generator: Adobe Illustrator 24.3.0, SVG Export Plug-In . SVG Version: 6.00 Build 0)  -->
<svg version="1.1" id="Meditation" xmlns="http://www.w3.org/2000/svg" xmlns:xlink="http://www.w3.org/1999/xlink" x="0px" y="0px"
	 viewBox="0 0 800 800" style="enable-background:new 0 0 800 800;" xml:space="preserve">
<style type="text/css">
	.st0{fill:#64832D;}
</style>
<g>
	<g>
		<path class="st0" d="M727.3,633.5c-1.7-14.8-8.1-28.3-18.3-38.9l41.6,27.4c2.8,1.9,6.1,2.8,9.3,2.8c3,0,6.1-0.8,8.8-2.5
			c5.6-3.4,8.7-9.7,8-16.2c-3-28.4-18.3-53.8-42-69.7l-5.1-3.4l3.7-8.3l-118-56.6l-41.9-71.2c-14.4-31.6-43.2-55.1-77.1-62.8
			l-57.8-13.1v-16.6c26.5-12.1,46.5-36.2,52.9-65.3c15.6-2.7,27.6-16.3,27.6-32.6c0-8.5-3.3-16.6-9.1-22.8V113
			c0-45.3-36.7-82.2-81.9-82.6c-5.7-6.3-13.9-10.4-23.1-10.4c-0.1,0-0.2,0-0.3,0c-30.3,0-59,12-80.9,33.8
			c-22.4,22.4-34.8,51.9-34.8,83.2v47c-5.6,6.1-8.7,14-8.7,22.4c0,16.4,11.9,30,27.6,32.6c6.5,29.4,26.7,53.7,53.6,65.7v16.2
			l-57.8,13.1c-33.9,7.7-62.7,31.1-77.1,62.8l-41.9,71.2L66.6,524.7l3.7,8.3l-5.1,3.4c-23.7,15.9-39,41.4-42,69.7
			c-0.7,6.6,2.4,12.8,8,16.2c2.7,1.7,5.8,2.5,8.8,2.5c3.2,0,6.5-0.9,9.3-2.8l18.1-11.9c-1.4,4.2-2.3,8.6-2.8,13.2
			c-1.1,9.9,0,19.4,3,28.3H18.3v128.3h763.3V651.6h-54.8C727.8,645.7,728,639.7,727.3,633.5z M666.9,691.6l-248,17.2l-5.6-53.2
			L656,590.1c13.4-1.4,26.5,2.5,37,10.9c10.7,8.5,17.4,20.7,18.9,34.2C714.9,663.1,694.8,688.4,666.9,691.6z M377.7,708.4l-53.2,0.7
			l-54,6c-0.2-19.9,18.4-37.6,43-40.4l59.6-6.7L377.7,708.4z M311.9,659.2c-22.5,2.5-41.2,15-50.5,31.7L125,681.4
			c-27.9-3.2-48-28.5-44.9-56.4c2.9-25.9,24.7-45.4,50.7-45.4c1.7,0,3.5,0.1,5.2,0.3L384.8,647l-13.4,3.6l0.2,1.8L311.9,659.2z
			 M271.4,600.3l-116.5-31.4l80.4-32.1l36.2-47.9V600.3z M393.8,710.5l-5.4-48.3l9.7-2.6l5.3,50.2L393.8,710.5z M761.3,607.8
			c0,0.2,0.1,0.8-0.6,1.2c-0.7,0.4-1.2,0.1-1.4,0l-48.6-32l13.1-29.2l2.4,1.6C746,562.7,758.8,584,761.3,607.8z M493.6,222.2
			c0-1.1,0.1-2.2,0.1-3.3v-1.1c3.4-1.5,6.5-3.7,9-6.3C501.3,216.2,497.9,220.1,493.6,222.2z M494.3,113v80.1c0,1.3-0.2,2.6-0.6,3.7
			v-0.3c0-10.2-3-20.1-8.8-28.5c-4-5.8-6.1-12.7-6.1-19.7v-12.1c0-19.4-15.8-35.2-35.2-35.2l-10.8-0.1c2-6.5,3.1-13.4,3.1-20.6V51
			c0-1.5-0.1-3-0.4-4.4C468.6,50.6,494.3,78.9,494.3,113z M304.6,137.1c0-27.1,10.7-52.8,30.2-72.2c18.9-18.9,43.7-29.3,69.8-29.3
			c0.1,0,0.2,0,0.3,0h0.2c8.4,0,15.3,6.9,15.3,15.3v29.3c0,30.1-24.5,54.6-54.6,54.6c-33.1,0-60.1,26.9-60.1,60.1v0.8
			c-0.7-1.6-1-3.4-1-5.2L304.6,137.1L304.6,137.1z M296.2,210c2.6,2.9,5.7,5.4,9.4,7.1v1.8c0,1.1,0,2.2,0.1,3.3
			C300.9,219.8,297.3,215.4,296.2,210z M321.2,218.9V195c0-24.5,19.9-44.4,44.4-44.4c25.5,0,47.9-13.7,60.2-34.1l17.7,0.1
			c10.8,0,19.6,8.8,19.6,19.6v12.1c0,10.2,3,20.1,8.8,28.5c4,5.8,6.1,12.7,6.1,19.7v22.4c0,43.2-35.2,78.4-78.4,78.4
			C356.4,297.3,321.2,262.1,321.2,218.9z M399.6,312.9c8,0,15.8-1,23.3-2.9v12.3c-14.6,6.2-31.2,6.2-45.9,0v-12.1
			C384.3,312,391.9,312.9,399.6,312.9z M195.7,480.1l44.6-75.6l0.4-0.8c12.4-27.4,37.2-47.7,66.5-54.3l61.2-13.9
			c10,4.7,20.8,7.1,31.7,7.1c10.8,0,21.7-2.4,31.7-7.1l61.2,13.9c29.3,6.6,54.1,27,66.5,54.3l44.9,76.4L713,532.2l-20.1,45.1
			l0.4,0.2l-1.8,4c-11.6-5.9-24.6-8.4-37.8-6.9l-0.6,0.1l-124.5,33.6V488.8l36.2,47.9l80.7,32.2l5.8-14.5l-76.7-30.6l-46-61v-22.4
			H513v172l-98.2,26.5L287,604.5v-164h-15.6v22.4l-46,61l-101.6,40.5c-7.1,0.7-13.8,2.6-20.1,5.3L87,532.2L195.7,480.1z M40.7,609
			c-0.2,0.1-0.7,0.5-1.4,0c-0.7-0.4-0.6-1-0.6-1.2c2.5-23.8,15.3-45.1,35.2-58.4l2.4-1.6l13.1,29.2L40.7,609z M766,667.2v97.1H34
			v-97.1h41.1c10.5,16,27.8,27.5,48.3,29.7l132.4,9.2c-0.9,4.5-1.1,9.2-0.5,14c0.7,6.3,6.4,10.9,13,10.9c0.5,0,1,0,1.6-0.1l55.3-6.2
			l54.4-0.7l0.4,3.1l288.2-19.9l0.3,0c24.6-2.8,44.6-18.7,53.8-39.9L766,667.2L766,667.2z"/>
		<path class="st0" d="M361.7,208.4c-3.1,0-5.6-2.5-5.6-5.6h-15.6c0,11.7,9.5,21.3,21.3,21.3c11.7,0,21.3-9.5,21.3-21.3h-15.6
			C367.3,205.8,364.8,208.4,361.7,208.4z"/>
		<path class="st0" d="M438.3,224c11.7,0,21.3-9.5,21.3-21.3H444c0,3.1-2.5,5.6-5.6,5.6c-3.1,0-5.6-2.5-5.6-5.6h-15.6
			C417.1,214.5,426.6,224,438.3,224z"/>
		<rect x="392.2" y="396.6" class="st0" width="15.6" height="210.9"/>
		<g>
			<rect x="596.9" y="93.4" class="st0" width="15.6" height="23.5"/>
			<rect x="596.9" y="133.6" class="st0" width="15.6" height="23.5"/>
			<rect x="572.8" y="117.4" class="st0" width="23.5" height="15.6"/>
			<rect x="613" y="117.4" class="st0" width="23.5" height="15.6"/>
			<rect x="183" y="291.4" class="st0" width="15.6" height="23.5"/>
			<rect x="183" y="331.6" class="st0" width="15.6" height="23.5"/>
			<rect x="158.9" y="315.5" class="st0" width="23.5" height="15.6"/>
			<rect x="199.1" y="315.5" class="st0" width="23.5" height="15.6"/>
		</g>
	</g>
</g>
</svg>
