<svg width="87" height="65" viewBox="0 0 87 65" fill="none" xmlns="http://www.w3.org/2000/svg">
<path d="M72.5778 21.067C72.5653 27.1751 70.655 33.1339 67.1244 38.119C63.7265 42.9093 58.8326 46.6636 53.313 48.6817C50.0559 49.8751 46.6289 50.476 43.1605 50.4843C41.8262 50.4884 41.8262 52.5603 43.1605 52.5562C49.6291 52.5396 56.0396 50.5381 61.3148 46.7796C66.5112 43.0792 70.51 37.8869 72.7269 31.9032C74.0074 28.4472 74.6414 24.7551 74.6497 21.0712C74.6497 19.7369 72.5778 19.7327 72.5778 21.067Z" fill="white"/>
<path d="M43.1606 50.4897C42.6095 50.4897 42.0542 50.4732 41.5031 50.4441C41.2461 50.4317 40.9478 50.5685 40.7696 50.7466C40.5914 50.9248 40.4547 51.2232 40.4671 51.4801C40.4795 51.7495 40.5666 52.0271 40.7696 52.2136C40.9768 52.4042 41.2171 52.5036 41.5031 52.5161C42.0542 52.5451 42.6095 52.5617 43.1606 52.5617C43.4258 52.5617 43.7034 52.4456 43.8941 52.2592C44.0722 52.081 44.209 51.7826 44.1966 51.5257C44.1841 51.2563 44.0971 50.9787 43.8941 50.7922C43.691 50.6058 43.4424 50.4897 43.1606 50.4897Z" fill="white"/>
<path d="M43.1606 40.883C47.9758 40.8623 52.6293 39.1012 56.251 35.9311C57.9666 34.4269 59.4294 32.6036 60.5275 30.6021C61.0952 29.5703 61.5676 28.4805 61.9488 27.3699C62.3093 26.3132 62.4668 25.211 63.0842 24.2579C63.9793 22.8697 65.5125 22.1114 67.1452 22.1031C67.9035 22.0989 68.6619 22.1031 69.4202 22.1031C72.4701 22.1031 75.5158 22.1031 78.5657 22.1031C80.8075 22.1031 83.0493 22.1031 85.287 22.1031C84.9431 21.7591 84.595 21.4111 84.251 21.0671C84.2345 29.6076 81.5575 37.9616 76.6056 44.9191C71.8526 51.5949 65.036 56.8161 57.3409 59.6381C52.7951 61.3039 48.0006 62.1451 43.1647 62.1534C41.8304 62.1576 41.8304 64.2295 43.1647 64.2254C52.0409 64.2088 60.8258 61.449 68.0652 56.2982C75.176 51.2344 80.6583 44.1111 83.6875 35.9228C85.4445 31.1781 86.3188 26.1185 86.3271 21.063C86.3271 20.5036 85.8506 20.027 85.2912 20.027C80.3102 20.027 75.3293 20.027 70.3484 20.027C68.0113 20.027 65.496 19.7452 63.4323 21.0713C62.4212 21.7177 61.5676 22.6294 61.0123 23.6943C60.457 24.7634 60.2623 25.9527 59.8603 27.0799C59.131 29.1228 57.9997 31.0414 56.5743 32.6741C53.1929 36.5444 48.3073 38.7821 43.1689 38.8028C41.8263 38.8152 41.8263 40.8872 43.1606 40.883Z" fill="white"/>
<path d="M0.00293589 21.0672C0.0195113 29.9434 2.77932 38.7283 7.93013 45.9676C12.9939 53.0785 20.1172 58.5608 28.3055 61.59C33.0502 63.347 38.1098 64.2213 43.1653 64.2296C43.7247 64.2296 44.2013 63.7531 44.2013 63.1936C44.1847 54.3175 41.4249 45.5325 36.2741 38.2932C31.2103 31.1824 24.087 25.7 15.8988 22.6709C11.154 20.9139 6.0944 20.0395 1.0389 20.0313C-0.295422 20.0271 -0.295422 22.099 1.0389 22.1032C9.57938 22.1198 17.9334 24.7967 24.8909 29.7486C31.5667 34.5016 36.7879 41.3182 39.6099 49.0134C41.2757 53.5592 42.1169 58.3536 42.1252 63.1895C42.4691 62.8456 42.8172 62.4975 43.1612 62.1535C34.6207 62.137 26.2667 59.46 19.3091 54.5081C12.6334 49.7551 7.41215 42.9385 4.59018 35.2433C2.92435 30.6975 2.08315 25.9031 2.07486 21.0672C2.07072 19.737 -0.00120796 19.7329 0.00293589 21.0672Z" fill="white"/>
<path d="M0.304905 21.8014C1.70967 23.2062 3.11444 24.6109 4.5192 26.0157C7.86744 29.3639 11.2115 32.708 14.5598 36.0563C18.6166 40.1131 22.6734 44.1699 26.7344 48.2309C30.2401 51.7366 33.75 55.2464 37.2557 58.7521C38.9546 60.4511 40.608 62.2081 42.3567 63.8532C42.3816 63.8781 42.4065 63.903 42.4313 63.9278C43.3761 64.8726 44.8389 63.4057 43.8982 62.4609C42.4935 61.0561 41.0887 59.6514 39.684 58.2466C36.3357 54.8984 32.9916 51.5543 29.6434 48.206C25.5866 44.1492 21.5297 40.0924 17.4688 36.0314C13.9631 32.5257 10.4532 29.0158 6.9475 25.5101C5.24852 23.8112 3.59513 22.0542 1.84642 20.4091C1.82156 20.3842 1.79669 20.3593 1.77183 20.3345C0.827031 19.3938 -0.639894 20.8566 0.304905 21.8014Z" fill="white"/>
<path d="M10.0139 22.2707C10.0139 24.844 10.0139 27.4173 10.0139 29.9865C10.0139 30.3512 10.0139 30.7158 10.0139 31.0764C10.3578 30.7324 10.7059 30.3843 11.0498 30.0404C8.4765 30.0404 5.90317 30.0404 3.33398 30.0404C2.96932 30.0404 2.60466 30.0404 2.24415 30.0404C0.909828 30.0404 0.909828 32.1123 2.24415 32.1123C4.81748 32.1123 7.39081 32.1123 9.96 32.1123C10.3247 32.1123 10.6893 32.1123 11.0498 32.1123C11.6093 32.1123 12.0858 31.6358 12.0858 31.0764C12.0858 28.503 12.0858 25.9297 12.0858 23.3605C12.0858 22.9958 12.0858 22.6312 12.0858 22.2707C12.0858 20.9405 10.0139 20.9364 10.0139 22.2707Z" fill="white"/>
<path d="M22.8225 27.9289C22.8225 32.5907 22.8225 37.2525 22.8225 41.9144C22.8225 42.5733 22.8225 43.2321 22.8225 43.891C23.1665 43.5471 23.5145 43.199 23.8585 42.855C19.1925 42.855 14.5265 42.855 9.86054 42.855C9.20167 42.855 8.54279 42.855 7.88392 42.855C6.5496 42.855 6.5496 44.927 7.88392 44.927C12.5499 44.927 17.2159 44.927 21.8819 44.927C22.5407 44.927 23.1996 44.927 23.8585 44.927C24.4179 44.927 24.8944 44.4504 24.8944 43.891C24.8944 39.2292 24.8944 34.5673 24.8944 29.9055C24.8944 29.2466 24.8944 28.5877 24.8944 27.9289C24.8944 26.5987 22.8225 26.5946 22.8225 27.9289Z" fill="white"/>
<path d="M34.6449 39.257C34.6449 44.0514 34.6449 48.85 34.6449 53.6445C34.6449 54.3323 34.6449 55.0244 34.6449 55.7122C34.9888 55.3683 35.3369 55.0202 35.6808 54.6763C30.8864 54.6763 26.0878 54.6763 21.2934 54.6763C20.6055 54.6763 19.9135 54.6763 19.2256 54.6763C17.8913 54.6763 17.8913 56.7482 19.2256 56.7482C24.02 56.7482 28.8186 56.7482 33.6131 56.7482C34.3009 56.7482 34.993 56.7482 35.6808 56.7482C36.2403 56.7482 36.7168 56.2717 36.7168 55.7122C36.7168 50.9178 36.7168 46.1192 36.7168 41.3248C36.7168 40.6369 36.7168 39.9449 36.7168 39.257C36.7168 37.9268 34.6449 37.9227 34.6449 39.257Z" fill="white"/>
<path d="M43.1607 40.8829C45.0379 40.8788 46.9192 40.6136 48.7218 40.0873C49.2398 39.9381 49.621 39.3497 49.447 38.811C49.2771 38.2847 48.7301 37.9242 48.1707 38.0858C47.3377 38.3262 46.4924 38.5168 45.6346 38.6411C45.5849 38.6494 45.5352 38.6535 45.4896 38.6618C45.6015 38.6452 45.5932 38.6494 45.4689 38.6618C45.3694 38.6743 45.2699 38.6867 45.1705 38.695C44.955 38.7198 44.7395 38.7364 44.5241 38.753C44.0682 38.7861 43.6165 38.8027 43.1607 38.8027C42.6179 38.8027 42.0999 39.2793 42.1248 39.8387C42.1496 40.4064 42.5806 40.8871 43.1607 40.8829Z" fill="white"/>
<path d="M43.1608 38.8142C40.372 38.8018 37.6246 38.1595 35.1383 36.8956C34.6411 36.6428 34.0153 36.763 33.7211 37.2685C33.4518 37.7285 33.5927 38.433 34.0941 38.6857C36.9119 40.1195 40.0032 40.8737 43.165 40.8861C44.4951 40.8903 44.4951 38.8183 43.1608 38.8142Z" fill="white"/>
<path d="M53.4375 11.2716C53.8146 10.8738 53.856 10.1983 53.4375 9.80465C50.4954 7.0407 47.5574 4.28089 44.6153 1.51694C44.1843 1.11084 43.7492 0.704746 43.3182 0.298648C42.9204 -0.0742986 42.245 -0.124025 41.8513 0.298648C37.6287 4.84446 36.6052 11.5741 39.3318 17.1558C40.0943 18.7181 41.1593 20.1353 42.4066 21.337C42.4066 20.848 42.4066 20.359 42.4066 19.8701C42.0336 20.2679 41.988 20.9433 42.4066 21.337C45.3487 24.1009 48.2867 26.8608 51.2288 29.6247C51.6598 30.0308 52.0949 30.4369 52.5259 30.843C52.9237 31.2159 53.5991 31.2657 53.9928 30.843C58.2154 26.2972 59.2389 19.5676 56.5123 13.9858C55.7498 12.4236 54.6848 11.0064 53.4375 9.80465C52.4761 8.88057 51.0092 10.3434 51.9706 11.2716C55.7995 14.9513 57.0675 20.7196 54.9749 25.6342C54.3865 27.0141 53.5453 28.2779 52.5259 29.3761C53.0148 29.3761 53.5038 29.3761 53.9928 29.3761C51.0216 26.5831 48.0464 23.7902 45.0752 21.0013C44.6733 20.6243 44.2713 20.2472 43.8694 19.8701C43.8694 20.359 43.8694 20.848 43.8694 21.337C44.2464 20.935 44.2837 20.272 43.8694 19.8701C40.0404 16.1903 38.7724 10.4221 40.8651 5.50747C41.4535 4.12757 42.2947 2.86369 43.3141 1.76557C42.8251 1.76557 42.3361 1.76557 41.8472 1.76557C44.8183 4.55853 47.7936 7.35149 50.7647 10.1403C51.1667 10.5174 51.5686 10.8945 51.9706 11.2716C51.9706 10.7826 51.9706 10.2936 51.9706 9.80465C51.0589 10.7785 52.5217 12.2454 53.4375 11.2716Z" fill="white"/>
<path d="M52.5177 29.3961C48.8462 33.2623 43.0531 34.5552 38.1178 32.446C33.17 30.3284 30.0621 25.2315 30.3563 19.8818C30.5179 16.9106 31.7652 14.068 33.7874 11.8924C34.695 10.9186 33.2322 9.44756 32.3205 10.4255C28.0855 14.9838 27.0744 21.7465 29.8466 27.3283C32.594 32.8645 38.7932 36.1837 44.9178 35.4171C48.378 34.9861 51.577 33.3908 53.9804 30.8589C54.9004 29.8933 53.4376 28.4264 52.5177 29.3961Z" fill="white"/>
</svg>
